<svg width="24" height="22" viewBox="0 0 24 22" fill="none" xmlns="http://www.w3.org/2000/svg">
<path fill-rule="evenodd" clip-rule="evenodd" d="M19.7321 13.3139C22.0855 13.3139 24 15.2188 24 17.5599C24 19.9009 22.0855 21.8058 19.7321 21.8058C17.3773 21.8058 15.4614 19.9009 15.4614 17.5599C15.4614 15.2188 17.3773 13.3139 19.7321 13.3139ZM19.7321 15.3711C18.5115 15.3711 17.5186 16.353 17.5186 17.5599C17.5186 18.7681 18.5115 19.7487 19.7321 19.7487C20.9513 19.7487 21.9428 18.7681 21.9428 17.5599C21.9428 16.353 20.9513 15.3711 19.7321 15.3711ZM9.71018 16.5845C10.278 16.5845 10.7388 17.0453 10.7388 17.6131C10.7388 18.1809 10.278 18.6417 9.71018 18.6417H1.06876C0.500986 18.6417 0.0401831 18.1809 0.0401831 17.6131C0.0401831 17.0453 0.500986 16.5845 1.06876 16.5845H9.71018ZM4.26928 0C6.62404 0 8.53856 1.9063 8.53856 4.24734C8.53856 6.58838 6.62404 8.49193 4.26928 8.49193C1.9159 8.49193 0 6.58838 0 4.24734C0 1.9063 1.9159 0 4.26928 0ZM4.26928 2.05715C3.05007 2.05715 2.05715 3.0391 2.05715 4.24734C2.05715 5.4542 3.05007 6.43478 4.26928 6.43478C5.48986 6.43478 6.48141 5.4542 6.48141 4.24734C6.48141 3.0391 5.48986 2.05715 4.26928 2.05715ZM22.2051 3.292C22.7728 3.292 23.2336 3.7528 23.2336 4.32057C23.2336 4.88835 22.7728 5.34915 22.2051 5.34915H13.565C12.9972 5.34915 12.5364 4.88835 12.5364 4.32057C12.5364 3.7528 12.9972 3.292 13.565 3.292H22.2051Z" fill="black"/>
</svg>
