<svg width="24" height="26" viewBox="0 0 24 26" fill="none" xmlns="http://www.w3.org/2000/svg">
<path fill-rule="evenodd" clip-rule="evenodd" d="M13.7173 16.7313C15.1268 16.7313 16.2742 17.8704 16.2742 19.2706V22.8718C16.2742 23.1726 16.5153 23.4138 16.8244 23.4208H19.0558C20.8143 23.4208 22.2437 22.0089 22.2437 20.2739V10.0604C22.2355 9.46337 21.951 8.90142 21.4628 8.52796L13.7442 2.37225C12.7081 1.55157 11.2587 1.55157 10.2191 2.37459L2.55318 8.52562C2.04626 8.91079 1.76177 9.47274 1.75591 10.0803V20.2739C1.75591 22.0089 3.18538 23.4208 4.94382 23.4208H7.1963C7.51357 23.4208 7.77113 23.1691 7.77113 22.8601C7.77113 22.7922 7.77933 22.7243 7.79338 22.6599V19.2706C7.79338 17.8786 8.93367 16.7406 10.3327 16.7313H13.7173ZM19.0558 25.1769H16.8033C15.5132 25.1465 14.5181 24.1338 14.5181 22.8718V19.2706C14.5181 18.8386 14.1586 18.4874 13.7173 18.4874H10.3385C9.90655 18.4897 9.54948 18.8421 9.54948 19.2706V22.8601C9.54948 22.9479 9.53777 23.0322 9.51318 23.1118C9.38674 24.2708 8.3963 25.1769 7.1963 25.1769H4.94382C2.21718 25.1769 -0.000183105 22.9771 -0.000183105 20.2739V10.0722C0.0115242 8.90844 0.547719 7.84308 1.47377 7.14181L9.1245 1.00132C10.8092 -0.333312 13.1565 -0.333312 14.8377 0.99898L22.5434 7.14532C23.4484 7.83488 23.9846 8.89791 23.9998 10.0476V20.2739C23.9998 22.9771 21.7825 25.1769 19.0558 25.1769Z" fill="black"/>
</svg>
