<svg width="32" height="38" viewBox="0 0 32 38" fill="none" xmlns="http://www.w3.org/2000/svg">
<path fill-rule="evenodd" clip-rule="evenodd" d="M12.6711 33.0535C13.5672 34.0517 14.7177 34.6002 15.9114 34.6002H15.9131C17.112 34.6002 18.2677 34.0517 19.1655 33.0518C19.6465 32.5207 20.4665 32.4774 20.9976 32.9566C21.5305 33.4359 21.5737 34.2576 21.0945 34.7887C19.6967 36.3405 17.8577 37.1952 15.9131 37.1952H15.9097C13.9703 37.1934 12.1348 36.3388 10.7421 34.787C10.2629 34.2559 10.3062 33.4341 10.839 32.9566C11.3719 32.4757 12.1919 32.519 12.6711 33.0535ZM15.9975 0C23.6874 0 28.8532 5.98929 28.8532 11.5824C28.8532 14.4594 29.585 15.6791 30.3618 16.9731C31.1299 18.2499 32.0001 19.6996 32.0001 22.4399C31.3963 29.4413 24.0871 30.0122 15.9975 30.0122C7.90803 30.0122 0.597021 29.4413 0.000144969 22.5506C-0.00502195 19.6996 0.865172 18.2499 1.6333 16.9731L1.90446 16.5167C2.57213 15.3691 3.14186 14.1209 3.14186 11.5824C3.14186 5.98929 8.30766 0 15.9975 0ZM15.9975 2.59501C9.95117 2.59501 5.73687 7.33177 5.73687 11.5824C5.73687 15.1791 4.73866 16.8416 3.85636 18.3087C3.14878 19.4868 2.58999 20.4175 2.58999 22.4399C2.8789 25.7027 5.03276 27.4172 15.9975 27.4172C26.9018 27.4172 29.1231 25.6266 29.4103 22.3275C29.4051 20.4176 28.8463 19.4868 28.1387 18.3087C27.2564 16.8416 26.2582 15.1791 26.2582 11.5824C26.2582 7.33177 22.0439 2.59501 15.9975 2.59501Z" fill="black"/>
</svg>
